<?xml version="1.0" standalone="no"?>
<!DOCTYPE svg PUBLIC "-//W3C//DTD SVG 20010904//EN"
 "http://www.w3.org/TR/2001/REC-SVG-20010904/DTD/svg10.dtd">
<svg version="1.0" xmlns="http://www.w3.org/2000/svg"
 width="1505.000000pt" height="671.000000pt" viewBox="0 0 1505.000000 671.000000"
 preserveAspectRatio="xMidYMid meet">

<g transform="translate(0.000000,671.000000) scale(0.100000,-0.100000)"
fill="#000000" stroke="none">
<path d="M1670 4926 c-123 -53 -211 -101 -308 -166 -51 -34 -92 -64 -92 -66 0
-3 5 -2 11 2 8 5 10 0 6 -17 -18 -73 -29 -229 -24 -352 3 -76 8 -141 11 -144
3 -3 58 37 123 88 65 52 148 117 185 143 63 46 67 51 60 80 -4 17 -7 74 -7
126 0 116 21 188 81 277 23 35 39 63 36 62 -4 0 -41 -15 -82 -33z"/>
<path d="M1219 4653 c-13 -16 -12 -17 4 -4 9 7 17 15 17 17 0 8 -8 3 -21 -13z"/>
<path d="M1087 4531 c-99 -102 -182 -212 -251 -330 l-49 -83 11 -87 c12 -101
50 -271 61 -271 4 0 33 31 64 69 31 38 106 116 166 172 l108 102 -8 38 c-28
122 -29 375 -3 462 10 34 -14 16 -99 -72z"/>
<path d="M5375 4584 c-47 -24 -73 -53 -92 -103 -17 -43 -18 -108 -18 -936 l0
-890 25 -50 c37 -73 92 -108 172 -109 90 -1 146 33 185 111 l28 58 0 885 0
885 -30 60 c-39 79 -83 105 -175 105 -40 0 -77 -6 -95 -16z"/>
<path d="M14102 4583 c-37 -18 -63 -52 -80 -102 -16 -47 -17 -1798 -1 -1856 6
-22 28 -56 48 -76 95 -96 235 -67 295 61 21 45 21 52 24 909 2 561 -1 883 -8
919 -20 109 -82 162 -187 162 -33 0 -72 -7 -91 -17z"/>
<path d="M7565 4541 c-98 -45 -115 -95 -115 -342 l0 -189 -31 0 c-59 0 -116
-21 -150 -56 -30 -31 -34 -41 -34 -89 0 -82 45 -120 155 -132 l60 -6 0 -431
c0 -335 3 -450 15 -515 31 -178 119 -257 312 -282 152 -19 340 9 416 63 61 44
77 142 32 197 -40 47 -78 55 -180 36 -91 -17 -138 -14 -169 14 -44 38 -46 58
-46 499 l0 419 92 7 c94 7 161 29 187 60 24 29 25 106 2 143 -32 50 -73 66
-182 71 l-97 4 -4 202 c-3 192 -4 203 -28 246 -19 34 -38 52 -79 73 -64 32
-101 34 -156 8z"/>
<path d="M1574 4313 c-49 -36 -132 -102 -184 -146 -52 -44 -96 -81 -98 -83 -2
-1 8 -36 22 -78 31 -90 89 -209 157 -319 58 -93 255 -341 326 -410 l50 -48 34
39 c87 100 284 319 304 338 l23 22 -154 193 c-187 234 -297 390 -344 486 -19
40 -38 72 -41 72 -3 1 -46 -29 -95 -66z"/>
<path d="M5943 4024 c-17 -8 -44 -34 -60 -57 l-28 -40 0 -651 c0 -602 1 -653
18 -683 26 -48 64 -80 112 -93 89 -25 170 14 218 104 21 40 22 53 27 461 l5
420 29 62 c30 66 96 137 157 169 44 23 191 31 245 14 88 -28 136 -111 154
-268 5 -48 10 -250 10 -450 0 -345 1 -366 21 -411 22 -53 54 -81 113 -101 78
-25 176 14 212 87 18 35 19 69 22 513 2 317 -1 497 -8 542 -40 239 -239 398
-500 398 -162 0 -299 -58 -417 -178 l-73 -73 0 49 c0 58 -41 146 -82 176 -37
27 -132 32 -175 10z"/>
<path d="M8765 4026 c-283 -56 -465 -235 -540 -530 -30 -119 -34 -309 -10
-428 59 -285 247 -482 522 -550 125 -30 333 -30 456 0 181 45 335 151 396 274
41 81 42 136 2 180 -24 27 -36 32 -87 36 -68 4 -74 1 -205 -117 -161 -144
-334 -186 -486 -117 -128 59 -222 209 -223 353 l0 42 433 3 c417 3 434 4 491
26 105 39 130 82 128 217 -2 129 -60 284 -149 392 -71 87 -210 176 -328 209
-82 22 -308 28 -400 10z m307 -275 c102 -49 165 -137 193 -270 8 -40 15 -77
15 -82 0 -5 -138 -9 -346 -9 l-347 0 6 48 c20 161 103 279 229 324 69 24 188
19 250 -11z"/>
<path d="M10320 4033 c-155 -18 -257 -67 -365 -177 -89 -90 -129 -160 -167
-291 -20 -71 -23 -102 -23 -265 0 -217 13 -284 81 -427 71 -149 186 -255 339
-313 84 -31 254 -39 345 -16 113 29 167 60 252 146 l80 80 -4 -163 c-6 -195
-23 -254 -97 -329 -65 -65 -128 -83 -286 -82 -173 1 -208 16 -322 141 -48 53
-102 102 -120 109 -71 30 -160 5 -204 -58 -34 -48 -33 -128 3 -189 55 -93 163
-170 307 -221 167 -57 472 -63 676 -12 183 45 314 163 375 337 45 128 50 216
50 896 0 660 -3 714 -41 777 -27 44 -85 68 -152 62 -99 -8 -157 -79 -157 -191
0 -31 -3 -57 -7 -57 -5 0 -27 22 -51 50 -52 60 -150 132 -217 158 -45 18 -207
44 -245 40 -8 0 -31 -3 -50 -5z m318 -308 c153 -70 226 -212 226 -445 1 -103
-3 -138 -22 -197 -32 -102 -97 -186 -182 -232 -62 -35 -69 -36 -165 -36 -93 0
-104 2 -155 31 -66 37 -142 127 -170 201 -31 84 -44 215 -31 317 16 115 37
179 86 251 44 65 116 117 189 134 64 16 160 5 224 -24z"/>
<path d="M11500 4022 c-45 -22 -76 -70 -90 -136 -7 -36 -10 -247 -8 -657 3
-671 -1 -633 71 -696 59 -52 166 -53 231 -2 15 11 36 40 48 62 21 40 22 60 29
412 8 386 13 437 59 557 28 75 91 132 161 147 54 12 86 7 221 -31 75 -21 78
-21 123 -4 60 23 97 76 97 139 0 84 -45 135 -167 190 -63 28 -80 31 -170 32
-79 0 -108 -4 -140 -20 -47 -23 -129 -104 -165 -163 -14 -23 -28 -42 -31 -42
-3 0 -9 25 -12 55 -7 71 -42 132 -89 156 -47 24 -122 25 -168 1z"/>
<path d="M12948 4026 c-99 -18 -139 -31 -222 -74 -84 -44 -155 -111 -192 -183
-23 -44 -28 -67 -29 -126 0 -63 3 -75 25 -99 38 -41 104 -67 154 -60 22 4 46
10 51 14 6 4 39 46 73 94 102 141 159 175 317 185 115 7 195 -9 239 -48 42
-36 74 -111 82 -187 l7 -59 -189 -46 c-104 -25 -265 -62 -359 -82 -199 -42
-273 -73 -350 -146 -186 -176 -150 -495 73 -638 90 -58 153 -74 292 -74 143
-1 214 14 330 69 72 34 205 117 216 135 3 5 32 -27 64 -71 73 -98 126 -135
190 -134 63 1 123 36 151 90 21 39 22 47 11 100 -6 33 -21 93 -33 134 -21 69
-23 104 -29 455 -6 339 -9 387 -27 446 -48 161 -137 242 -321 291 -100 26
-406 34 -524 14z m492 -991 c-30 -155 -139 -257 -305 -286 -134 -23 -241 12
-289 94 -64 111 -32 218 85 278 21 10 134 41 251 68 117 28 224 54 238 59 l25
9 3 -81 c2 -44 -2 -108 -8 -141z"/>
<path d="M1099 3903 c-63 -65 -136 -144 -163 -176 l-49 -58 16 -52 c22 -69 88
-197 168 -326 104 -168 372 -491 407 -491 5 0 45 48 89 108 45 59 114 142 153
186 l72 79 -50 51 c-121 126 -206 231 -297 368 -68 101 -171 291 -201 368 -9
25 -20 48 -24 53 -3 4 -58 -46 -121 -110z"/>
<path d="M713 3943 c-48 -126 -76 -244 -93 -383 -19 -159 -22 -159 90 -10 55
73 100 137 100 141 0 4 -9 35 -19 70 -18 60 -47 181 -53 222 -2 10 -13 -7 -25
-40z"/>
<path d="M818 3583 c-23 -26 -152 -223 -171 -260 -10 -18 -17 -44 -17 -58 0
-83 626 -895 647 -838 14 38 86 178 122 237 l42 69 -29 31 c-176 190 -290 330
-364 446 -56 88 -153 270 -179 333 -12 31 -26 57 -29 57 -4 0 -14 -8 -22 -17z"/>
<path d="M2288 3511 c-3 -11 -193 -225 -283 -320 l-60 -63 105 -100 c136 -129
311 -277 447 -376 59 -43 142 -104 183 -135 41 -31 80 -57 85 -57 6 0 91 81
190 180 155 155 178 182 165 193 -8 8 -94 76 -190 152 -208 165 -402 330 -527
449 -87 83 -108 96 -115 77z"/>
<path d="M625 3130 c30 -253 160 -560 331 -782 54 -70 222 -248 235 -248 4 0
11 21 14 48 4 26 13 76 21 110 l14 64 -86 91 c-201 214 -365 442 -489 682
l-46 90 6 -55z"/>
<path d="M1827 2998 c-72 -83 -183 -224 -215 -271 -24 -37 -25 -38 -6 -59 30
-34 300 -256 408 -337 102 -75 312 -218 355 -241 23 -12 31 -5 182 146 l158
157 -147 110 c-264 198 -421 328 -589 488 -40 38 -77 69 -82 69 -5 0 -34 -28
-64 -62z"/>
<path d="M3135 2638 c-55 -60 -135 -143 -177 -184 -43 -41 -78 -76 -78 -78 0
-7 175 -133 328 -235 154 -104 166 -117 137 -155 -13 -17 -28 -9 -247 139
-128 87 -244 166 -257 176 -23 19 -24 19 -60 -13 -20 -17 -93 -86 -163 -153
l-127 -123 52 -32 c94 -60 296 -179 337 -200 47 -24 57 -22 195 38 212 93 393
220 563 397 62 64 116 124 122 135 9 16 -8 31 -138 121 -81 57 -196 139 -257
184 -60 44 -115 84 -120 87 -6 3 -55 -43 -110 -104z"/>
<path d="M1523 2588 c-36 -57 -122 -247 -125 -277 -2 -19 13 -38 77 -94 145
-126 346 -269 562 -400 l91 -55 42 60 c24 33 72 93 108 134 35 41 63 76 61 78
-2 1 -69 47 -149 101 -189 128 -312 221 -492 372 l-148 123 -27 -42z"/>
<path d="M1365 2200 c-7 -11 -24 -144 -25 -187 0 -29 7 -36 73 -77 113 -70
291 -151 417 -189 124 -37 245 -61 260 -52 18 11 10 32 -17 46 -163 83 -477
286 -615 398 -48 38 -90 66 -93 61z"/>
<path d="M2373 1888 c-72 -75 -163 -192 -163 -210 0 -19 362 -3 485 22 60 12
116 25 124 29 9 6 -15 24 -80 61 -52 29 -137 80 -190 112 -53 32 -98 58 -101
58 -2 0 -36 -33 -75 -72z"/>
</g>
</svg>
